<?xml version="1.0" encoding="utf-8"?>
<!-- Generator: Adobe Illustrator 16.0.0, SVG Export Plug-In . SVG Version: 6.00 Build 0)  -->
<!DOCTYPE svg PUBLIC "-//W3C//DTD SVG 1.1//EN" "http://www.w3.org/Graphics/SVG/1.1/DTD/svg11.dtd">
<svg version="1.1" id="Layer_1" xmlns="http://www.w3.org/2000/svg" xmlns:xlink="http://www.w3.org/1999/xlink" x="0px" y="0px"
	 width="216px" height="360px" viewBox="0 0 216 360" enable-background="new 0 0 216 360" xml:space="preserve">
<text transform="matrix(1 0 0 1 31.6797 206.5117)"><tspan x="0" y="0" font-family="'Gotham-Bold'" font-size="25.2176">KEEP CALM</tspan><tspan x="53.157" y="28.02" font-family="'Gotham-Bold'" font-size="19.6137">AND</tspan><tspan x="39.289" y="61.644" font-family="'Gotham-Bold'" font-size="25.2176">LOCK</tspan><tspan x="15.445" y="95.267" font-family="'Gotham-Bold'" font-size="25.2176">IT DOWN</tspan></text>
<text transform="matrix(1 0 0 1 25.0537 337.29)"><tspan x="0" y="0" font-family="'FontAwesome'" font-size="13"></tspan><tspan x="11.143" y="0" font-family="'FontAwesome'" font-size="12"> </tspan><tspan x="14.143" y="0" font-family="'Gotham-Medium'" font-size="12">uwaterloo.ca/lockitdown</tspan></text>
<g>
	<g id="XMLID_2_">
		<g>
		</g>
		<g>
			<path fill="none" stroke="#000000" stroke-width="5.32" stroke-miterlimit="10" d="M158.121,148.468
				c0,7.94-5.919,14.364-13.221,14.364H71.099c-7.302,0-13.22-6.424-13.22-14.364V43.531c0-7.927,5.918-14.364,13.22-14.364H144.9
				c7.302,0,13.221,6.438,13.221,14.364V148.468z"/>
			<path fill="none" stroke="#000000" stroke-width="5.32" stroke-miterlimit="10" d="M153.106,129.622
				c0,6.344-5.319,11.491-11.89,11.491H74.783c-6.57,0-11.891-5.147-11.891-11.491v-83.95c0-6.344,5.32-11.491,11.891-11.491h66.434
				c6.57,0,11.89,5.147,11.89,11.491V129.622z"/>
		</g>
	</g>
	<path fill="none" stroke="#000000" stroke-width="1.4146" stroke-miterlimit="10" d="M114.415,154.729
		c0,1.771-1.438,3.208-3.207,3.208h-6.416c-1.771,0-3.208-1.437-3.208-3.208v-6.415c0-1.772,1.437-3.209,3.208-3.209h6.416
		c1.77,0,3.207,1.437,3.207,3.209V154.729z"/>
	<g id="XMLID_1_">
		<g>
			<path d="M126.093,82.225v26.533c0,2.66-2.154,4.828-4.828,4.828H94.731c-2.673,0-4.828-2.168-4.828-4.828V82.225
				c0-2.673,2.154-4.828,4.828-4.828h26.533C123.938,77.396,126.093,79.551,126.093,82.225z M115.347,108.864l-5.254-15.188
				c1.384-0.758,2.328-2.221,2.328-3.897c0-2.434-1.982-4.429-4.429-4.429c-2.434,0-4.416,1.995-4.416,4.429
				c0,1.689,0.944,3.152,2.341,3.897l-5.267,15.188H115.347z"/>
		</g>
		<g>
			<path fill="none" stroke="#000000" stroke-width="7.98" stroke-miterlimit="10" d="M126.093,108.758
				c0,2.66-2.154,4.828-4.828,4.828H94.731c-2.673,0-4.828-2.168-4.828-4.828V82.225c0-2.673,2.154-4.828,4.828-4.828h26.533
				c2.674,0,4.828,2.155,4.828,4.828V108.758z"/>
		</g>
	</g>
	<text transform="matrix(0 -1 1 0 122.6875 85.7354)" font-family="'Gotham-Bold'" font-size="41.895">D</text>
	<rect x="96.916" y="105.759" stroke="#000000" stroke-width="1.33" stroke-miterlimit="10" width="24.827" height="3.99"/>
	<rect x="58.97" y="139.119" stroke="#000000" stroke-width="1.3025" stroke-miterlimit="10" width="42.614" height="15.609"/>
	<rect x="114.385" y="141.114" stroke="#000000" stroke-width="1.33" stroke-miterlimit="10" width="42.561" height="12.413"/>
	<rect x="59.413" y="148.651" stroke="#000000" stroke-width="1.33" stroke-miterlimit="10" width="41.23" height="7.536"/>
	<g>
		<g>
			<path d="M66.949,161.287c10.625,0.718,20.871,5.017,31.474,1.653c1.673-0.53,2.888-2.313,2.322-4.09
				c-2.522-7.919-18.009-5.774-24.153-5.747c-3.443,0.015-9.93,0.853-11.174-3.293c-1.817-6.057-0.23-12.499-1.913-18.447
				c-1.165-4.12-7.582-2.367-6.412,1.768c0.743,2.626,0.304,5.72,0.367,8.43c0.071,3.085,0.725,6.138,1.338,9.151
				c0.965,4.742,4.064,7.228,8.605,8.416c4.282,1.121,9.051,0.616,13.421,0.61c2.884-0.003,5.765,0.056,8.641,0.268
				c1.215,0.09,2.399,0.276,3.588,0.537c1.09,0.239,1.596,1.07,1.279,0.075c0.774-1.363,1.548-2.727,2.322-4.09
				c-9.778,3.102-19.848-1.225-29.706-1.892C62.667,154.347,62.694,161,66.949,161.287L66.949,161.287z"/>
		</g>
	</g>
	<g>
		<g>
			<path d="M62.65,43.272c3.211-2.942,4.954-8.021,9.618-8.898c4.211-0.792,2.423-7.2-1.768-6.412
				c-6.292,1.183-8.303,6.715-12.552,10.608C54.779,41.472,59.495,46.162,62.65,43.272L62.65,43.272z"/>
		</g>
	</g>
	<g>
		<g>
			<path d="M139.214,35.823c2.803,0.272,5.64,1.268,8.177,2.45c1.603,0.748,6.229,2.937,5.907,5.311
				c-0.568,4.191,5.839,6,6.412,1.768c1.408-10.386-12.196-15.373-20.496-16.179C134.945,28.759,134.985,35.413,139.214,35.823
				L139.214,35.823z"/>
		</g>
	</g>
	<g>
		<g>
			<path d="M150.193,136.684c-0.468,1.916-0.862,3.848-1.33,5.764c-0.872,3.572,4.286,6.001,6.077,2.562
				c1.964-3.772,1.776-7.765,2.229-11.875c0.198-1.806-1.663-3.325-3.325-3.325c-1.962,0-3.127,1.524-3.325,3.325
				c-0.31,2.814,0.023,5.938-1.32,8.518c2.025,0.854,4.052,1.708,6.077,2.562c0.468-1.916,0.863-3.848,1.33-5.764
				C157.622,134.286,151.209,132.519,150.193,136.684L150.193,136.684z"/>
		</g>
	</g>
	<g>
		<g>
			<path d="M150.162,152.063c-5.819,6.386-17.055,3.56-24.692,3.459c1.108,1.108,2.217,2.217,3.325,3.325
				c0.057-2.495,17.084-1.437,19.724-2.114c4.151-1.064,2.39-7.478-1.768-6.412c-7.039,1.805-24.338-3.329-24.606,8.526
				c-0.041,1.83,1.544,3.302,3.325,3.325c9.757,0.128,21.973,2.738,29.396-5.408C157.746,153.604,153.057,148.887,150.162,152.063
				L150.162,152.063z"/>
		</g>
	</g>
	<g>
		<g>
			<path d="M124.142,154.312c-1.059,0.231,0.526,0.017-0.525,0.064c-0.343,0.015-0.687-0.019-1.027-0.051
				c0.666,0.063-0.354-0.106-0.405-0.118c-0.389-0.091-0.771-0.214-1.15-0.338c0.662,0.509,1.325,1.019,1.987,1.528
				c-0.446,2.238-0.405,2.942,0.125,2.11c0.12-0.167,0.227-0.342,0.319-0.526c0.887-1.582,0.391-3.622-1.193-4.549
				c-1.542-0.903-3.664-0.386-4.549,1.193c-0.55,0.98-1.024,1.742-1.079,2.924c-0.083,1.836,1.257,3.289,2.894,3.821
				c2.076,0.675,4.239,0.82,6.372,0.355c1.771-0.386,2.783-2.415,2.322-4.09C127.732,154.817,125.91,153.925,124.142,154.312
				L124.142,154.312z"/>
		</g>
	</g>
	<g>
		<g>
			<path d="M117.294,157.068c0.399-1.776,0.409-1.311,0.195-3.047c-0.094-0.762-1.104-1.208-1.549-0.419
				c-0.662,1.172-0.586,0.997-0.915,2.359c0.545,0.074,1.089,0.147,1.633,0.221c0.046-0.536,0.091-1.071,0.137-1.607
				c0.143-0.898-0.998-1.491-1.52-0.641c-0.856,1.396-0.757,3.565-2.031,4.653c-0.719,0.614,0.226,1.829,1.008,1.306
				c1.178-0.789,1.683-1.549,2.459-2.792c-0.507-0.213-1.013-0.427-1.52-0.641c-0.403,1.166-0.39,1.175-0.528,2.382
				c-0.057,0.486,0.423,0.785,0.831,0.831c1.06,0.12,2.093,0.161,3.159,0.167c-0.073-0.544-0.147-1.088-0.221-1.633
				c-0.76,0.324-1.535,0.602-2.328,0.831c-0.923,0.296-0.705,1.556,0.221,1.633c1.362,0.114,2.628,0.114,3.99,0
				c1.064-0.088,1.076-1.592,0-1.662c-7.118-0.467-14.199-0.433-21.28,0.498c-1.031,0.135-1.091,1.742,0,1.662
				c6.924-0.505,13.839-1.123,20.781-1.329c0.952-0.028,1.113-1.342,0.221-1.633c-1.601-0.521-3.209-1.012-4.821-1.497
				c0.066,0.507,0.133,1.013,0.199,1.52c0.654-0.249,1.309-0.498,1.963-0.747c-0.27-0.463-0.539-0.926-0.809-1.39
				c-1.134,0.584-2.269,1.168-3.402,1.752c0.196,0.473,0.392,0.946,0.588,1.419c0.388-0.443,0.776-0.887,1.164-1.33
				c-0.392-0.392-0.784-0.784-1.176-1.176c-2.145,2.558-5.285,1.831-8.224,1.752c0,0.554,0,1.108,0,1.662
				c2.65-0.3,5.096,0.207,7.568-0.944c0.931-0.434,0.208-1.643-0.641-1.52c-2.567,0.374-12.598,3.182-12.747-1.359
				c-0.417,0.239-0.833,0.479-1.25,0.718c2.472,1.626,3.465,4.526,6.792,4.073c0.676-0.092,0.722-0.977,0.367-1.39
				c-1.404-1.633-3.486-2.299-4.821-3.989c-0.336,0.435-0.672,0.871-1.007,1.306c2.432,1.11,4.663,2.441,7.274,3.084
				c3.006,0.741,6.578,0.207,9.604-0.145c2.555-0.296,4.744-2.114,5.041-4.744c0.576-5.116-3.835-13.453-9.917-12.184
				c-0.781,0.163-0.719,1.13-0.199,1.52c0.683,0.555,1.402,1.053,2.161,1.496c0.789,0.501,1.737-0.695,1.008-1.306
				c-2.415-2.021-11.928-4.113-13.774-0.497c-0.349,0.684,0.405,1.65,1.137,1.137c3.76-2.632,9.068-1.761,13.325-1.08
				c0.073-0.544,0.147-1.089,0.221-1.633c-4.517,0.582-9.817-1.042-13.719,1.942c-0.839,0.642-0.013,2.087,0.839,1.436
				c3.588-2.744,8.703-1.177,12.88-1.716c0.839-0.108,1.233-1.471,0.221-1.633c-4.715-0.754-10.438-1.668-14.605,1.248
				c0.379,0.379,0.758,0.758,1.137,1.137c1.191-2.332,9.565-0.503,11.163,0.833c0.336-0.435,0.672-0.871,1.008-1.306
				c-0.76-0.443-1.479-0.941-2.161-1.496c-0.066,0.506-0.133,1.013-0.199,1.52c4.524-0.945,7.627,5.639,7.896,9.224
				c0.304,4.03-3.477,4.492-6.582,4.747c-4.963,0.407-8.526-1.015-12.919-3.021c-0.884-0.404-1.598,0.558-1.007,1.306
				c1.362,1.724,3.396,2.332,4.821,3.989c0.123-0.463,0.245-0.926,0.367-1.39c-2.197,0.299-3.888-2.838-5.511-3.905
				c-0.522-0.344-1.271,0.106-1.25,0.718c0.219,6.676,10.96,3.528,14.851,2.963c-0.213-0.507-0.427-1.013-0.641-1.52
				c-2.066,0.963-4.539,0.469-6.729,0.718c-1.042,0.118-1.096,1.633,0,1.662c3.548,0.096,6.894,0.75,9.399-2.238
				c0.681-0.812-0.465-1.988-1.176-1.176c-0.388,0.443-0.776,0.887-1.164,1.33c-0.454,0.52-0.181,1.439,0.588,1.419
				c2.073-0.055,3.246-0.651,4.578-2.238c0.495-0.59,0.047-1.669-0.809-1.39c-0.974,0.318-1.418,0.499-2.361,0.915
				c-0.697,0.308-0.427,1.331,0.199,1.52c1.611,0.484,3.221,0.976,4.821,1.497c0.073-0.544,0.147-1.089,0.221-1.633
				c-6.942,0.206-13.857,0.824-20.781,1.329c0,0.554,0,1.108,0,1.662c7.081-0.931,14.162-0.965,21.28-0.498c0-0.554,0-1.108,0-1.662
				c-1.362,0.113-2.628,0.113-3.99,0c0.073,0.544,0.147,1.088,0.221,1.633c0.793-0.23,1.569-0.507,2.328-0.831
				c0.84-0.327,0.771-1.627-0.221-1.633c-1.362-0.008-2.52,0.631-1.858-1.276c0.318-0.92-1.036-1.416-1.52-0.641
				c-0.436,0.882-1.057,1.614-1.863,2.196c0.336,0.435,0.672,0.871,1.008,1.306c1.653-1.412,1.201-3.211,2.291-4.99
				c-0.507-0.213-1.013-0.427-1.52-0.641c-0.132,0.832-0.177,1.209-0.195,2.049c-0.021,0.936,1.412,1.136,1.633,0.221
				c0.249-0.654,0.498-1.309,0.747-1.963c-0.517-0.14-1.032-0.28-1.549-0.419c-0.046,0.868-0.091,1.737-0.137,2.605
				C115.456,157.67,117.059,158.113,117.294,157.068L117.294,157.068z"/>
		</g>
	</g>
	<rect x="72.27" y="139.724" width="75.644" height="5.319"/>
</g>
</svg>
